<svg width="29" height="33" viewBox="0 0 29 33" fill="none" xmlns="http://www.w3.org/2000/svg">
<path d="M14.6519 2.44727C15.7716 2.44727 16.8661 2.77907 17.7973 3.40075C18.7285 4.02242 19.4546 4.9061 19.8839 5.94019C20.3132 6.97427 20.4265 8.11238 20.2093 9.21078C19.9922 10.3092 19.4545 11.3186 18.664 12.1116C17.8736 12.9046 16.8659 13.4455 15.7682 13.6661C14.6705 13.8868 13.532 13.7772 12.4966 13.3512C11.4611 12.9252 10.5751 12.2019 9.95047 11.2727C9.32582 10.3435 8.99053 9.25002 8.98695 8.13037C8.98935 6.6295 9.58725 5.19092 10.6494 4.13049C11.7115 3.07006 13.151 2.47446 14.6519 2.47446M14.6519 0C13.0385 0 11.4613 0.478433 10.1198 1.3748C8.77832 2.27116 7.73274 3.5452 7.11532 5.0358C6.49789 6.5264 6.33634 8.16661 6.6511 9.74903C6.96587 11.3314 7.7428 12.785 8.88365 13.9258C10.0245 15.0667 11.478 15.8436 13.0605 16.1584C14.6429 16.4731 16.2831 16.3116 17.7737 15.6942C19.2643 15.0767 20.5383 14.0312 21.4347 12.6897C22.3311 11.3482 22.8095 9.77098 22.8095 8.15756C22.8095 5.99404 21.95 3.91914 20.4202 2.3893C18.8904 0.859455 16.8154 0 14.6519 0ZM24.7039 20.6749C25.1846 20.6749 25.6457 20.8659 25.9857 21.2058C26.3257 21.5458 26.5166 22.0069 26.5166 22.4877C26.5166 26.1767 20.1719 29.9292 15.6399 29.9292H13.8271C9.29512 29.9292 3.00473 26.1767 3.00473 22.4877C3.00473 22.0069 3.19572 21.5458 3.53569 21.2058C3.87565 20.8659 4.33674 20.6749 4.81753 20.6749H24.7039ZM24.7039 18.2095H4.82659C3.68714 18.2095 2.59435 18.6621 1.78864 19.4679C0.98292 20.2736 0.530273 21.3664 0.530273 22.5058C0.530273 27.9442 8.35247 32.4218 13.8271 32.4218H15.7033C21.1417 32.4218 29.0002 27.9804 29.0002 22.5058C29.0002 21.9416 28.889 21.3829 28.6731 20.8617C28.4572 20.3404 28.1408 19.8668 27.7418 19.4679C27.3429 19.0689 26.8692 18.7524 26.348 18.5365C25.8267 18.3206 25.2681 18.2095 24.7039 18.2095Z" fill="white"/>
</svg>
